# Created by Kenney (www.kenney.nl)

mtllib Scyth.mtl

v 10 16 -1
v 10 9 -1
v 10 16 1
v 10 9 1
v 8 16 -1
v 8 16 1
v 8 9 1
v 8 9 -1
v 8 15 -0.5
v 8 10 -0.5
v 8 15 0.5
v 8 10 0.5
v 4 15 -0.5
v 4 15 0.5
v 4 10 0.5
v 4 10 -0.5
v 4 14 -0.5
v 4 14 0.5
v -1 14 -0.5
v -1 14 0.5
v -1 10 0.5
v -1 10 -0.5
v -1 13 -0.5
v -1 9 -0.5
v -1 13 0.5
v -1 9 0.5
v -3 13 -0.5
v -3 13 0.5
v -3 9 0.5
v -3 9 -0.5
v -3 12 -0.5
v -3 8 -0.5
v -3 12 0.5
v -3 8 0.5
v -5 12 -0.5
v -5 12 0.5
v -5 8 0.5
v -5 8 -0.5
v -5 11 -0.5
v -5 7 -0.5
v -5 11 0.5
v -5 7 0.5
v -7 11 -0.5
v -7 11 0.5
v -7 7 0.5
v -7 7 -0.5
v 1 10 -0.5
v 1 9 -0.5
v 1 10 0.5
v 1 9 0.5
v -7 10 -0.5
v -7 6 -0.5
v -7 10 0.5
v -7 6 0.5
v -8 10 -0.5
v -8 10 0.5
v -8 6 0.5
v -8 6 -0.5
v -2 9 -0.5
v -2 8 -0.5
v -2 9 0.5
v -2 8 0.5
v -8 9 -0.5
v -8 5 -0.5
v -8 9 0.5
v -8 5 0.5
v -9 9 -0.5
v -9 9 0.5
v -9 5 0.5
v -9 5 -0.5
v -4 8 -0.5
v -4 7 -0.5
v -4 8 0.5
v -4 7 0.5
v -9 8 -0.5
v -9 4 -0.5
v -9 8 0.5
v -9 4 0.5
v -10 8 -0.5
v -10 8 0.5
v -10 4 0.5
v -10 4 -0.5
v -6 7 -0.5
v -6 6 -0.5
v -6 7 0.5
v -6 6 0.5
v -10 7 -0.5
v -10 3 -0.5
v -10 7 0.5
v -10 3 0.5
v -11 7 -0.5
v -11 7 0.5
v -11 3 0.5
v -11 3 -0.5
v -11 6 -0.5
v -11 2 -0.5
v -11 6 0.5
v -11 2 0.5
v -12 6 -0.5
v -12 6 0.5
v -12 2 0.5
v -12 2 -0.5
v -12 4 -0.5
v -12 1 -0.5
v -12 4 0.5
v -12 1 0.5
v -13 4 -0.5
v -13 4 0.5
v -13 1 0.5
v -13 1 -0.5
v -13 3 -0.5
v -13 0 -0.5
v -13 3 0.5
v -13 0 0.5
v -14 3 -0.5
v -14 3 0.5
v -14 0 0.5
v -14 0 -0.5
v 10 9 -0.5
v 10 -16 -0.5
v 10 9 0.5
v 10 -16 0.5
v 8 9 -0.5
v 8 9 0.5
v 8 -16 0.5
v 8 -16 -0.5

vn 1 0 0
vn 0 1 0
vn 0 -1 0
vn -1 0 0
vn 0 0 -1
vn 0 0 1

vt -19.68504 19.68504
vt 19.68504 19.68504
vt -19.68504 -19.68504
vt 0 NaN
vt 0 0
vt 0 NaN
vt 0 NaN
vt 0 NaN
vt 0 NaN
vt 0 NaN
vt 19.68504 -19.68504
vt 0 NaN
vt 0 NaN
vt 0 NaN
vt 0 NaN
vt 0 NaN
vt 0 NaN
vt 0 NaN
vt 0 NaN
vt 0 NaN
vt 0 NaN
vt 0 NaN
vt 0 NaN
vt 0 NaN
vt 0 NaN
vt 0 NaN
vt 0 NaN
vt 0 NaN
vt 0 NaN
vt 0 NaN
vt 0 NaN
vt 0 NaN
vt 0 NaN
vt 0 NaN
vt 0 NaN
vt 0 NaN
vt 0 NaN
vt 0 NaN
vt 0 NaN
vt 0 NaN
vt 0 NaN
vt 0 NaN
vt 0 NaN
vt 0 NaN
vt 0 NaN
vt 0 NaN
vt 0 NaN
vt 0 NaN
vt 0 NaN
vt 0 NaN
vt 0 NaN
vt 0 NaN
vt 0 NaN
vt 0 NaN
vt 0 NaN
vt 0 NaN
vt 0 NaN
vt 0 NaN
vt 0 NaN
vt 0 NaN
vt 0 NaN
vt 0 NaN
vt 0 NaN
vt 0 NaN
vt 0 NaN
vt 0 NaN
vt 0 NaN
vt 0 NaN
vt 0 NaN
vt 0 NaN
vt 0 NaN
vt 0 NaN
vt 0 NaN
vt 0 NaN
vt 0 NaN
vt 0 NaN
vt 0 NaN
vt 0 NaN
vt 0 NaN
vt 0 NaN
vt 0 NaN
vt 0 NaN
vt 0 NaN
vt 0 NaN
vt 0 NaN
vt 0 NaN
vt 0 NaN
vt 0 NaN
vt 0 NaN
vt 0 NaN
vt 0 NaN
vt 0 NaN
vt 0 NaN
vt 0 NaN
vt 0 NaN
vt 0 NaN
vt 0 NaN
vt 0 NaN
vt 0 NaN
vt 0 NaN

usemtl color13

f 3/3/1 2/2/1 1/1/1
f 2/3/1 3/2/1 4/1/1
f 5/3/2 3/2/2 1/1/2
f 3/3/2 5/2/2 6/1/2
f 7/5/3 2/5/3 4/4/3
f 2/5/3 7/5/3 8/6/3
f 7/5/4 5/5/4 8/7/4
f 5/5/4 7/5/4 6/8/4
f 5/5/5 2/5/5 8/9/5
f 2/5/5 5/5/5 1/10/5
f 3/2/6 7/3/6 4/11/6
f 7/3/6 3/2/6 6/1/6

usemtl color14

f 11/3/1 10/2/1 9/1/1
f 10/3/1 11/2/1 12/1/1
f 13/3/2 11/2/2 9/1/2
f 11/3/2 13/2/2 14/1/2
f 15/5/3 10/5/3 12/12/3
f 10/5/3 15/5/3 16/13/3
f 15/5/4 13/5/4 16/14/4
f 13/5/4 15/5/4 14/15/4
f 13/5/5 10/5/5 16/16/5
f 10/5/5 13/5/5 9/17/5
f 11/2/6 15/3/6 12/11/6
f 15/3/6 11/2/6 14/1/6
f 18/3/1 16/2/1 17/1/1
f 16/3/1 18/2/1 15/1/1
f 19/3/2 18/2/2 17/1/2
f 18/3/2 19/2/2 20/1/2
f 21/5/3 16/13/3 15/5/3
f 16/13/3 21/5/3 22/18/3
f 21/5/4 19/5/4 22/19/4
f 19/5/4 21/5/4 20/20/4
f 19/5/5 16/16/5 22/21/5
f 16/16/5 19/5/5 17/22/5
f 18/2/6 21/3/6 15/11/6
f 21/3/6 18/2/6 20/1/6
f 25/3/1 24/2/1 23/1/1
f 24/3/1 25/2/1 26/1/1
f 27/3/2 25/2/2 23/1/2
f 25/3/2 27/2/2 28/1/2
f 29/5/3 24/5/3 26/23/3
f 24/5/3 29/5/3 30/24/3
f 29/5/4 27/5/4 30/25/4
f 27/5/4 29/5/4 28/26/4
f 27/5/5 24/5/5 30/27/5
f 24/5/5 27/5/5 23/28/5
f 25/2/6 29/3/6 26/11/6
f 29/3/6 25/2/6 28/1/6
f 33/3/1 32/2/1 31/1/1
f 32/3/1 33/2/1 34/1/1
f 35/3/2 33/2/2 31/1/2
f 33/3/2 35/2/2 36/1/2
f 37/5/3 32/5/3 34/29/3
f 32/5/3 37/5/3 38/30/3
f 37/5/4 35/5/4 38/31/4
f 35/5/4 37/5/4 36/32/4
f 35/5/5 32/5/5 38/33/5
f 32/5/5 35/5/5 31/34/5
f 33/2/6 37/3/6 34/11/6
f 37/3/6 33/2/6 36/1/6
f 41/3/1 40/2/1 39/1/1
f 40/3/1 41/2/1 42/1/1
f 43/3/2 41/2/2 39/1/2
f 41/3/2 43/2/2 44/1/2
f 45/5/3 40/5/3 42/35/3
f 40/5/3 45/5/3 46/36/3
f 45/5/4 43/5/4 46/37/4
f 43/5/4 45/5/4 44/38/4
f 43/5/5 40/5/5 46/39/5
f 40/5/5 43/5/5 39/40/5
f 41/2/6 45/3/6 42/11/6
f 45/3/6 41/2/6 44/1/6
f 49/3/1 48/2/1 47/1/1
f 48/3/1 49/2/1 50/1/1
f 22/3/2 49/2/2 47/1/2
f 49/3/2 22/2/2 21/1/2
f 26/23/3 48/5/3 50/41/3
f 48/5/3 26/23/3 24/5/3
f 26/5/4 22/19/4 24/42/4
f 22/19/4 26/5/4 21/5/4
f 22/21/5 48/5/5 24/5/5
f 48/5/5 22/21/5 47/43/5
f 49/2/6 26/3/6 50/11/6
f 26/3/6 49/2/6 21/1/6
f 53/3/1 52/2/1 51/1/1
f 52/3/1 53/2/1 54/1/1
f 55/3/2 53/2/2 51/1/2
f 53/3/2 55/2/2 56/1/2
f 57/5/3 52/5/3 54/44/3
f 52/5/3 57/5/3 58/45/3
f 57/5/4 55/5/4 58/46/4
f 55/5/4 57/5/4 56/47/4
f 55/5/5 52/5/5 58/48/5
f 52/5/5 55/5/5 51/49/5
f 53/2/6 57/3/6 54/11/6
f 57/3/6 53/2/6 56/1/6
f 61/3/1 60/2/1 59/1/1
f 60/3/1 61/2/1 62/1/1
f 30/3/2 61/2/2 59/1/2
f 61/3/2 30/2/2 29/1/2
f 34/29/3 60/5/3 62/50/3
f 60/5/3 34/29/3 32/5/3
f 34/5/4 30/25/4 32/51/4
f 30/25/4 34/5/4 29/5/4
f 30/27/5 60/5/5 32/5/5
f 60/5/5 30/27/5 59/52/5
f 61/2/6 34/3/6 62/11/6
f 34/3/6 61/2/6 29/1/6
f 65/3/1 64/2/1 63/1/1
f 64/3/1 65/2/1 66/1/1
f 67/3/2 65/2/2 63/1/2
f 65/3/2 67/2/2 68/1/2
f 69/5/3 64/5/3 66/53/3
f 64/5/3 69/5/3 70/54/3
f 69/5/4 67/5/4 70/55/4
f 67/5/4 69/5/4 68/56/4
f 67/5/5 64/5/5 70/57/5
f 64/5/5 67/5/5 63/58/5
f 65/2/6 69/3/6 66/11/6
f 69/3/6 65/2/6 68/1/6
f 73/3/1 72/2/1 71/1/1
f 72/3/1 73/2/1 74/1/1
f 38/3/2 73/2/2 71/1/2
f 73/3/2 38/2/2 37/1/2
f 42/35/3 72/5/3 74/59/3
f 72/5/3 42/35/3 40/5/3
f 42/5/4 38/31/4 40/60/4
f 38/31/4 42/5/4 37/5/4
f 38/33/5 72/5/5 40/5/5
f 72/5/5 38/33/5 71/61/5
f 73/2/6 42/3/6 74/11/6
f 42/3/6 73/2/6 37/1/6
f 77/3/1 76/2/1 75/1/1
f 76/3/1 77/2/1 78/1/1
f 79/3/2 77/2/2 75/1/2
f 77/3/2 79/2/2 80/1/2
f 81/5/3 76/5/3 78/62/3
f 76/5/3 81/5/3 82/63/3
f 81/5/4 79/5/4 82/64/4
f 79/5/4 81/5/4 80/65/4
f 79/5/5 76/5/5 82/66/5
f 76/5/5 79/5/5 75/67/5
f 77/2/6 81/3/6 78/11/6
f 81/3/6 77/2/6 80/1/6
f 85/3/1 84/2/1 83/1/1
f 84/3/1 85/2/1 86/1/1
f 46/3/2 85/2/2 83/1/2
f 85/3/2 46/2/2 45/1/2
f 54/44/3 84/5/3 86/68/3
f 84/5/3 54/44/3 52/5/3
f 54/5/4 46/37/4 52/69/4
f 46/37/4 54/5/4 45/5/4
f 46/39/5 84/5/5 52/5/5
f 84/5/5 46/39/5 83/70/5
f 85/2/6 54/3/6 86/11/6
f 54/3/6 85/2/6 45/1/6
f 89/3/1 88/2/1 87/1/1
f 88/3/1 89/2/1 90/1/1
f 91/3/2 89/2/2 87/1/2
f 89/3/2 91/2/2 92/1/2
f 93/5/3 88/5/3 90/71/3
f 88/5/3 93/5/3 94/72/3
f 93/5/4 91/5/4 94/73/4
f 91/5/4 93/5/4 92/74/4
f 91/5/5 88/5/5 94/75/5
f 88/5/5 91/5/5 87/76/5
f 89/2/6 93/3/6 90/11/6
f 93/3/6 89/2/6 92/1/6
f 97/3/1 96/2/1 95/1/1
f 96/3/1 97/2/1 98/1/1
f 99/3/2 97/2/2 95/1/2
f 97/3/2 99/2/2 100/1/2
f 101/5/3 96/5/3 98/77/3
f 96/5/3 101/5/3 102/78/3
f 101/5/4 99/5/4 102/79/4
f 99/5/4 101/5/4 100/80/4
f 99/5/5 96/5/5 102/81/5
f 96/5/5 99/5/5 95/82/5
f 97/2/6 101/3/6 98/11/6
f 101/3/6 97/2/6 100/1/6
f 105/3/1 104/2/1 103/1/1
f 104/3/1 105/2/1 106/1/1
f 107/3/2 105/2/2 103/1/2
f 105/3/2 107/2/2 108/1/2
f 109/5/3 104/5/3 106/83/3
f 104/5/3 109/5/3 110/84/3
f 109/5/4 107/5/4 110/85/4
f 107/5/4 109/5/4 108/86/4
f 107/5/5 104/5/5 110/87/5
f 104/5/5 107/5/5 103/88/5
f 105/2/6 109/3/6 106/11/6
f 109/3/6 105/2/6 108/1/6
f 113/3/1 112/2/1 111/1/1
f 112/3/1 113/2/1 114/1/1
f 115/3/2 113/2/2 111/1/2
f 113/3/2 115/2/2 116/1/2
f 117/5/3 112/5/3 114/89/3
f 112/5/3 117/5/3 118/90/3
f 117/5/4 115/5/4 118/91/4
f 115/5/4 117/5/4 116/92/4
f 115/5/5 112/5/5 118/93/5
f 112/5/5 115/5/5 111/94/5
f 113/2/6 117/3/6 114/11/6
f 117/3/6 113/2/6 116/1/6

usemtl color12

f 121/3/1 120/2/1 119/1/1
f 120/3/1 121/2/1 122/1/1
f 123/3/2 121/2/2 119/1/2
f 121/3/2 123/2/2 124/1/2
f 125/5/3 120/5/3 122/95/3
f 120/5/3 125/5/3 126/96/3
f 125/5/4 123/5/4 126/97/4
f 123/5/4 125/5/4 124/98/4
f 123/5/5 120/5/5 126/99/5
f 120/5/5 123/5/5 119/100/5
f 121/2/6 125/3/6 122/11/6
f 125/3/6 121/2/6 124/1/6

